<svg width="527" height="440" viewBox="0 0 527 440" fill="none" xmlns="http://www.w3.org/2000/svg">
<path d="M270.68 411.454L496.632 263.522C503.825 259.041 509.991 251.7 502.982 246.884L276.227 102.118C272.828 99.7829 267.663 98.2504 264.198 100.483L27.0483 252.97C19.8547 257.596 18.5636 270.483 25.7308 275.154L240.905 411.192C245.419 414.098 250.54 415.651 255.761 415.697C260.983 415.744 266.125 414.281 270.68 411.454Z" fill="#FFB3A6"/>
<path style="mix-blend-mode:multiply" d="M172.408 316.253L136.493 338.334C136.493 338.334 170.05 367.641 185.109 374.705L221.063 350.988" fill="url(#paint0_linear)"/>
<path style="mix-blend-mode:multiply" d="M170.946 227.969L135.031 250.051C135.031 250.051 143.634 265.127 158.746 272.133L197.559 248.416" fill="url(#paint1_linear)"/>
<path style="mix-blend-mode:multiply" d="M365.211 315.041C365.211 315.041 408.623 288.114 408.886 287.661L341.443 250.051L303.512 274.307L365.211 315.041Z" fill="url(#paint2_linear)"/>
<path d="M415.013 205.084L470.084 242.899C470.589 243.245 471.004 243.73 471.287 244.307C471.571 244.885 471.714 245.534 471.702 246.191C471.69 246.849 471.524 247.491 471.219 248.055C470.915 248.619 470.482 249.086 469.965 249.408L386.383 301.731C385.221 302.472 383.904 302.863 382.562 302.863C381.221 302.863 379.904 302.472 378.742 301.731L323.921 266.032C319.968 262.412 321.048 257.041 323.921 255.29L407.015 204.967C408.233 204.182 409.62 203.778 411.028 203.799C412.437 203.82 413.814 204.264 415.013 205.084Z" fill="#BD68FC"/>
<path d="M415.012 202.486L470.084 240.301C470.589 240.647 471.004 241.132 471.287 241.71C471.571 242.287 471.714 242.936 471.702 243.593C471.69 244.251 471.524 244.893 471.219 245.457C470.915 246.022 470.482 246.488 469.965 246.811L386.396 299.177C385.234 299.918 383.917 300.309 382.576 300.309C381.235 300.309 379.917 299.918 378.755 299.177L323.934 263.478C323.291 263.065 322.758 262.472 322.387 261.758C322.016 261.045 321.821 260.236 321.821 259.413C321.821 258.59 322.016 257.781 322.387 257.068C322.758 256.355 323.291 255.762 323.934 255.349L407.028 202.428C408.24 201.637 409.622 201.224 411.028 201.235C412.434 201.245 413.811 201.678 415.012 202.486Z" fill="white"/>
<path d="M411.35 204.53L466.698 243.118L383.919 295.586L326.806 258.384L411.35 204.53Z" fill="#606060"/>
<path d="M351.733 279.547C352.817 279.547 353.696 279.089 353.696 278.525C353.696 277.961 352.817 277.503 351.733 277.503C350.649 277.503 349.77 277.961 349.77 278.525C349.77 279.089 350.649 279.547 351.733 279.547Z" fill="#383097"/>
<path style="mix-blend-mode:multiply" d="M413.392 268.484C413.392 268.484 420.599 253.641 420.638 253.568L419.4 252.882L404.09 262.675L413.392 268.484Z" fill="url(#paint3_linear)"/>
<path d="M478.121 213.739C478.102 213.633 478.102 213.524 478.121 213.418C477.369 212.982 476.56 212.682 475.723 212.527L424.34 246.504C424.34 246.504 421.257 249.175 426.975 252.78L479.135 218.438C479.085 216.812 478.74 215.214 478.121 213.739Z" fill="#CCCCCC"/>
<path d="M424.235 246.489C424.235 246.489 418.254 253.904 418.148 254.385C418.043 254.867 426.804 252.765 426.804 252.765" fill="#CCCCCC"/>
<path d="M478.947 218.45C479.892 217.845 479.953 216.003 479.084 214.335C478.214 212.666 476.743 211.804 475.798 212.408C474.853 213.013 474.791 214.855 475.661 216.524C476.53 218.192 478.002 219.055 478.947 218.45Z" fill="#F2F2F2"/>
<path d="M218.455 199.1L240.035 210.616C240.846 211.05 241.535 211.72 242.029 212.555C242.522 213.39 242.802 214.357 242.837 215.354C242.872 216.351 242.662 217.34 242.229 218.215C241.795 219.09 241.156 219.818 240.378 220.321L189.219 253.378C188.113 254.092 186.801 254.305 185.557 253.974C184.312 253.642 183.231 252.791 182.54 251.598L170.116 230.216" fill="#56403D"/>
<path d="M101.026 143.728L273.17 33.8729C274.351 33.116 275.691 32.7173 277.055 32.717C278.419 32.7166 279.76 33.1146 280.941 33.8709C282.122 34.6272 283.102 35.715 283.782 37.0247C284.463 38.3344 284.82 39.8196 284.817 41.3308V155.608C284.816 156.862 284.518 158.094 283.951 159.181C283.385 160.267 282.57 161.169 281.589 161.796L98.101 279.123C97.4678 279.528 96.7495 279.742 96.0183 279.741C95.2871 279.741 94.5688 279.528 93.9358 279.122C93.3028 278.717 92.7773 278.134 92.4122 277.432C92.0471 276.73 91.8553 275.934 91.8561 275.124V161.285C91.8605 157.725 92.7101 154.229 94.3196 151.147C95.9291 148.065 98.2419 145.507 101.026 143.728Z" fill="#BD68FC"/>
<path d="M273.144 42.513L106.243 148.894C104.46 150.031 102.98 151.669 101.95 153.642C100.921 155.615 100.379 157.853 100.38 160.132V245.804C100.382 246.623 100.578 247.427 100.948 248.136C101.318 248.845 101.85 249.435 102.49 249.845C103.13 250.256 103.856 250.473 104.595 250.476C105.335 250.479 106.062 250.267 106.704 249.861L276.925 141.655C277.561 141.252 278.09 140.67 278.458 139.968C278.826 139.265 279.02 138.468 279.02 137.656V46.3222C279.018 45.5607 278.836 44.813 278.493 44.153C278.15 43.4931 277.657 42.9436 277.064 42.559C276.471 42.1744 275.797 41.9678 275.11 41.9597C274.422 41.9517 273.745 42.1424 273.144 42.513Z" fill="white"/>
<path d="M207.246 200.306C207.68 197.813 206.438 195.452 204.473 195.033C202.509 194.614 200.564 196.295 200.131 198.788C199.698 201.282 200.939 203.643 202.904 204.062C204.869 204.481 206.813 202.8 207.246 200.306Z" fill="#AB643C"/>
<path d="M281.629 248.504L326.661 277.007C327.132 277.308 327.522 277.741 327.794 278.263C328.066 278.784 328.209 279.375 328.209 279.977C328.209 280.579 328.066 281.171 327.794 281.692C327.522 282.213 327.132 282.646 326.661 282.947L201.577 362.664C200.061 363.632 198.341 364.142 196.591 364.142C194.84 364.142 193.121 363.632 191.604 362.664L149.444 335.707C148.954 335.393 148.548 334.942 148.265 334.399C147.983 333.856 147.834 333.24 147.834 332.613C147.834 331.986 147.983 331.371 148.265 330.828C148.548 330.285 148.954 329.833 149.444 329.519L276.003 248.533C276.855 247.979 277.824 247.684 278.812 247.679C279.8 247.674 280.772 247.958 281.629 248.504Z" fill="#974C26"/>
<path d="M213.58 293.952L226.439 302.388L216.9 308.532C214.265 306.795 206.492 301.745 204.002 300.125L213.58 293.952Z" fill="white"/>
<path d="M227.664 284.888L240.523 293.324L228.441 301.103C226.333 299.746 218.547 294.652 215.543 292.697L227.664 284.888Z" fill="white"/>
<path d="M278.836 251.977L291.892 260.282L280.272 267.754C278.427 266.572 270.549 261.42 267.373 259.347L278.836 251.977Z" fill="white"/>
<path d="M251.326 269.622L264.185 278.058L254.646 284.188C252.394 282.728 244.633 277.664 241.748 275.781L251.326 269.622Z" fill="white"/>
<path d="M265.41 260.603L278.269 269.038L266.135 276.817C264.712 275.913 256.623 270.629 253.237 268.411L265.41 260.603Z" fill="white"/>
<path d="M202.039 301.38L214.897 309.816L205.767 315.654C203.027 313.874 195.306 308.838 192.869 307.247L202.039 301.38Z" fill="white"/>
<path d="M239.785 277.095L252.644 285.531L242.539 292.025C240.167 290.566 232.433 285.443 229.64 283.619L239.785 277.095Z" fill="white"/>
<path d="M190.906 308.547L203.765 316.982L191.683 324.761C189.153 323.127 181.446 318.091 178.785 316.355L190.906 308.547Z" fill="white"/>
<path d="M176.808 317.61L189.667 326.046L167.994 339.984L154.925 331.679L176.808 317.61Z" fill="white"/>
<path d="M293.565 262.748L306.622 271.053L289.745 281.911C287.531 280.452 279.771 275.416 276.846 273.504L293.565 262.748Z" fill="white"/>
<path d="M260.786 283.823L273.645 292.259L264.106 298.403C261.55 296.754 253.843 291.719 251.208 289.997L260.786 283.823Z" fill="white"/>
<path d="M237.15 299.045L250.009 307.481L237.927 315.26C235.503 313.698 227.783 308.649 225.029 306.853L237.15 299.045Z" fill="white"/>
<path d="M249.245 291.252L262.103 299.687L251.998 306.182C249.363 304.475 241.629 299.425 239.1 297.776L249.245 291.252Z" fill="white"/>
<path d="M223.04 308.109L235.898 316.544L226.36 322.689C223.408 320.777 215.648 315.698 213.461 314.282L223.04 308.109Z" fill="white"/>
<path d="M211.498 315.537L224.357 323.973L215.227 329.811C212.223 327.87 204.45 322.776 202.328 321.404L211.498 315.537Z" fill="white"/>
<path d="M274.87 274.76L287.729 283.195L275.647 290.96C273.737 289.734 265.872 284.596 262.749 282.553L274.87 274.76Z" fill="white"/>
<path d="M200.365 322.703L213.224 331.139L201.143 338.918C198.35 337.108 190.603 332.059 188.244 330.512L200.365 322.703Z" fill="white"/>
<path d="M199.127 340.203L182.711 350.755L169.654 342.45L186.268 331.752L199.127 340.203Z" fill="white"/>
<path d="M208.745 338.758L218.31 345.048L207.216 352.156L197.506 345.982L208.745 338.758Z" fill="white"/>
<path d="M204.924 353.63L195.491 359.687L185.768 353.528L195.372 347.354L204.924 353.63Z" fill="white"/>
<path d="M309.665 273.826L319.678 279.97L308.321 287.267L298.493 281.006L309.665 273.826Z" fill="white"/>
<path d="M296.372 282.378L306.029 288.727L293.908 296.52L284.093 290.274L296.372 282.378Z" fill="white"/>
<path d="M281.958 291.646L291.602 297.994L220.615 343.559L210.879 337.371L281.958 291.646Z" fill="white"/>
<path style="mix-blend-mode:multiply" d="M313.644 157.242L295.199 169.312C295.199 169.312 300.891 180.375 314.962 186.914L336.384 174.158" fill="url(#paint4_linear)"/>
<path d="M328.598 175.15C338.021 175.15 345.659 169.191 345.659 161.84C345.659 154.489 338.021 148.529 328.598 148.529C319.175 148.529 311.536 154.489 311.536 161.84C311.536 169.191 319.175 175.15 328.598 175.15Z" fill="#BD68FC"/>
<path d="M328.611 159.767C335.669 159.767 341.391 157.173 341.391 153.973C341.391 150.773 335.669 148.179 328.611 148.179C321.553 148.179 315.831 150.773 315.831 153.973C315.831 157.173 321.553 159.767 328.611 159.767Z" fill="#974C26"/>
<path d="M329.454 154.105C330.455 152.543 331.47 150.908 332.524 149.069C333.841 146.72 335.159 144.326 336.305 141.845C337.383 139.652 338.304 137.368 339.059 135.015C339.898 132.459 340.572 129.84 341.074 127.177C341.206 126.477 341.312 125.718 341.43 125.076C341.43 124.755 341.43 124.784 341.43 124.828C341.43 124.871 341.43 124.609 341.43 124.215C341.549 122.755 341.628 121.296 341.641 119.924C341.699 114.96 340.834 110.037 339.098 105.46C334.485 112.871 331.375 121.301 329.981 130.169C329.893 130.695 329.81 131.225 329.731 131.76C329.731 131.76 329.599 132.723 329.546 133.117L329.415 134.445C329.353 135.117 329.296 135.793 329.243 136.474C329.059 139.087 328.967 141.699 328.98 144.312C329.085 147.581 329.217 150.85 329.454 154.105ZM334.882 115.049C335.19 114.66 335.51 114.28 335.844 113.911C335.776 114.247 335.776 114.596 335.844 114.932C335.524 114.913 335.204 114.953 334.895 115.049H334.882Z" fill="#999A1C"/>
<path d="M329.783 154.324C329.876 152.412 329.915 150.427 329.902 148.252C329.902 145.464 329.783 142.691 329.559 139.918C329.397 137.426 329.058 134.952 328.545 132.519C328.007 129.864 327.298 127.254 326.424 124.711C326.187 124.039 325.949 123.383 325.686 122.726C325.567 122.419 325.594 122.449 325.62 122.492L325.357 121.952C324.751 120.683 324.131 119.427 323.446 118.216C321.067 113.999 317.927 110.372 314.224 107.562C313.956 116.567 315.453 125.529 318.611 133.832C318.795 134.329 318.984 134.815 319.178 135.292L319.691 136.547L320.232 137.758C320.504 138.362 320.785 138.965 321.075 139.568C322.195 141.874 323.394 144.122 324.671 146.326C326.279 149.084 327.992 151.74 329.783 154.324ZM315.291 118.216C315.361 117.7 315.445 117.214 315.541 116.757C315.63 117.086 315.783 117.39 315.989 117.647C315.731 117.802 315.496 117.998 315.291 118.231V118.216Z" fill="#999A1C"/>
<path d="M329.862 155.345C329.349 154.28 328.795 153.2 328.163 152.018C327.346 150.558 326.477 149.099 325.528 147.639C324.702 146.355 323.785 145.144 322.788 144.02C321.722 142.778 320.577 141.622 319.362 140.561L318.44 139.729C318.282 139.612 318.308 139.612 318.334 139.627L318.031 139.422C317.333 138.955 316.635 138.503 315.91 138.094C313.404 136.667 310.659 135.828 307.847 135.628C310.325 140.577 313.741 144.874 317.86 148.223L318.598 148.821L319.23 149.318L319.876 149.77L320.864 150.441C322.138 151.288 323.455 152.076 324.816 152.806C326.437 153.754 328.137 154.586 329.862 155.345ZM311.523 141.042C311.409 140.741 311.303 140.434 311.207 140.123C311.35 140.27 311.521 140.379 311.707 140.444C311.618 140.632 311.556 140.833 311.523 141.042Z" fill="#999A1C"/>
<path d="M329.454 154.105C330.455 152.543 331.47 150.908 332.524 149.069C333.841 146.72 335.159 144.326 336.305 141.845C337.383 139.652 338.304 137.368 339.059 135.015C339.898 132.459 340.572 129.84 341.074 127.177C341.206 126.477 341.312 125.718 341.43 125.076C341.43 124.755 341.43 124.784 341.43 124.828C341.43 124.871 341.43 124.609 341.43 124.215C341.549 122.755 341.628 121.296 341.641 119.924C341.699 114.96 340.834 110.037 339.098 105.46C334.485 112.871 331.375 121.301 329.981 130.169C329.893 130.695 329.81 131.225 329.731 131.76C329.731 131.76 329.599 132.723 329.546 133.117L329.415 134.445C329.353 135.117 329.296 135.793 329.243 136.474C329.059 139.087 328.967 141.699 328.98 144.312C329.085 147.581 329.217 150.85 329.454 154.105ZM334.882 115.049C335.19 114.66 335.51 114.28 335.844 113.911C335.776 114.247 335.776 114.596 335.844 114.932C335.524 114.913 335.204 114.953 334.895 115.049H334.882Z" fill="#999A1C"/>
<path d="M329.783 154.324C329.876 152.412 329.915 150.427 329.902 148.252C329.902 145.464 329.783 142.691 329.559 139.918C329.397 137.426 329.058 134.952 328.545 132.519C328.007 129.864 327.298 127.254 326.424 124.711C326.187 124.039 325.949 123.383 325.686 122.726C325.567 122.419 325.594 122.449 325.62 122.492L325.357 121.952C324.751 120.683 324.131 119.427 323.446 118.216C321.067 113.999 317.927 110.372 314.224 107.562C313.956 116.567 315.453 125.529 318.611 133.832C318.795 134.329 318.984 134.815 319.178 135.292L319.691 136.547L320.232 137.758C320.504 138.362 320.785 138.965 321.075 139.568C322.195 141.874 323.394 144.122 324.671 146.326C326.279 149.084 327.992 151.74 329.783 154.324ZM315.291 118.216C315.361 117.7 315.445 117.214 315.541 116.757C315.63 117.086 315.783 117.39 315.989 117.647C315.731 117.802 315.496 117.998 315.291 118.231V118.216Z" fill="#999A1C"/>
<path d="M329.862 155.345C329.349 154.28 328.795 153.2 328.163 152.018C327.346 150.558 326.477 149.099 325.528 147.639C324.702 146.355 323.785 145.144 322.788 144.02C321.722 142.778 320.577 141.622 319.362 140.561L318.44 139.729C318.282 139.612 318.308 139.612 318.334 139.627L318.031 139.422C317.333 138.955 316.635 138.503 315.91 138.094C313.404 136.667 310.659 135.828 307.847 135.628C310.325 140.577 313.741 144.874 317.86 148.223L318.598 148.821L319.23 149.318L319.876 149.77L320.864 150.441C322.138 151.288 323.455 152.076 324.816 152.806C326.437 153.754 328.137 154.586 329.862 155.345ZM311.523 141.042C311.409 140.741 311.303 140.434 311.207 140.123C311.35 140.27 311.521 140.379 311.707 140.444C311.618 140.632 311.556 140.833 311.523 141.042Z" fill="#999A1C"/>
<path d="M136.651 212.382L197.506 176.522L160.985 137.89L136.651 212.382Z" fill="#E88831"/>
<path d="M244.923 127.644C257.715 127.644 268.085 116.157 268.085 101.987C268.085 87.8164 257.715 76.3291 244.923 76.3291C232.131 76.3291 221.762 87.8164 221.762 101.987C221.762 116.157 232.131 127.644 244.923 127.644Z" fill="#7ACC92"/>
<path d="M123.845 161.957C120.156 159.621 116.836 165.926 120.525 168.261C131.974 175.559 122.804 191.438 114.28 195.992C110.459 198.02 113.792 204.325 117.6 202.297C130.907 195.189 139.655 171.837 123.845 161.957Z" fill="#56403D"/>
<path d="M229.245 144.107C225.74 125.966 203.699 137.102 207.533 153.55C209.193 160.672 216.202 164.817 222.262 161.285C224.912 159.602 227.013 157.035 228.267 153.95C229.521 150.865 229.863 147.42 229.245 144.107ZM222.895 148.661C222.755 150.008 222.311 151.295 221.604 152.402C220.897 153.509 219.95 154.401 218.85 154.995C213.817 157.126 213.936 150.047 215.174 146.661C217.387 140.386 223.975 141.188 222.868 148.719L222.895 148.661Z" fill="#56403D"/>
<path d="M219.048 377.23C219.182 376.285 219.524 375.393 220.044 374.629C220.563 373.866 221.243 373.255 222.025 372.851L231.577 366.751L246.333 357.278L263.961 345.968L282.722 333.941L300.864 322.266L316.674 312.151L328.334 304.679L334.461 300.753C334.461 300.899 334.671 300.899 334.803 300.855C335.531 300.659 336.291 300.673 337.013 300.897C337.734 301.12 338.391 301.546 338.92 302.133C339.449 302.719 339.834 303.447 340.036 304.246C340.238 305.044 340.25 305.887 340.073 306.693C339.362 309.758 337.003 312.458 334.803 314.326C327.67 319.999 320.224 325.176 312.511 329.826V326.775C317.702 323.623 328.901 316.559 333.591 311.159L331.351 312.619L325.185 316.617L315.897 322.631L304.303 330.132L291.167 338.699L277.386 347.617L263.737 356.447L251.036 364.678L240.141 371.786L231.748 377.215C229.192 378.879 226.412 381.126 223.435 381.769C222.873 381.813 222.309 381.728 221.778 381.52C221.247 381.311 220.76 380.984 220.348 380.558C219.936 380.132 219.608 379.617 219.385 379.044C219.161 378.471 219.046 377.854 219.048 377.23Z" fill="#BD68FC"/>
<path style="mix-blend-mode:multiply" d="M293.723 221.605L274.04 234.595C274.04 234.595 286.965 248.314 302.024 255.334L320.324 242.096" fill="url(#paint5_linear)"/>
<path d="M291.839 212.338V222.539L320.284 242.053L354.434 218.935V210.236" fill="#E54C3C"/>
<path d="M354.434 210.236L325.436 191.015L291.839 212.338L320.838 231.851L354.434 210.236Z" fill="#F5604B"/>
<defs>
<linearGradient id="paint0_linear" x1="214.66" y1="312.283" x2="159.94" y2="352.486" gradientUnits="userSpaceOnUse">
<stop stop-color="#D4A397"/>
<stop offset="1" stop-color="white"/>
</linearGradient>
<linearGradient id="paint1_linear" x1="9469.29" y1="6907.74" x2="8010.04" y2="8589.42" gradientUnits="userSpaceOnUse">
<stop stop-color="#D4A397"/>
<stop offset="1" stop-color="white"/>
</linearGradient>
<linearGradient id="paint2_linear" x1="371.364" y1="256.239" x2="341.9" y2="295.421" gradientUnits="userSpaceOnUse">
<stop offset="0.01" stop-color="#4D4D4D"/>
<stop offset="1" stop-color="white"/>
</linearGradient>
<linearGradient id="paint3_linear" x1="5653.71" y1="2919.55" x2="5556.46" y2="3071.53" gradientUnits="userSpaceOnUse">
<stop offset="0.01" stop-color="#4D4D4D"/>
<stop offset="1" stop-color="white"/>
</linearGradient>
<linearGradient id="paint4_linear" x1="326.134" y1="159.257" x2="305.603" y2="179.563" gradientUnits="userSpaceOnUse">
<stop stop-color="#78B46A"/>
<stop offset="0.03" stop-color="#7F3500"/>
<stop offset="1" stop-color="white"/>
</linearGradient>
<linearGradient id="paint5_linear" x1="11395.6" y1="5298.76" x2="10682.5" y2="6095.47" gradientUnits="userSpaceOnUse">
<stop stop-color="#D4A397"/>
<stop offset="1" stop-color="white"/>
</linearGradient>
</defs>
</svg>
