<svg width="575" height="343" viewBox="0 0 575 343" fill="none" xmlns="http://www.w3.org/2000/svg">
<path d="M36.3445 342.99C87.8184 344.112 13.8425 247.606 64.6659 253.391C89.6267 256.232 90.8309 276.927 115.24 281.538C176.217 293.056 110.784 169.758 173.231 176.458C210.226 180.427 204.956 219.216 242.012 222.899C303.553 229.017 235.821 119.888 297.98 119.227C337.956 118.802 341.017 162.696 380.921 160.978C440.35 158.418 363.509 68.4564 421.38 58.7126C469.936 50.5374 478.613 113.545 527.923 107.969C590.546 100.887 574.714 45.3897 568.78 -0.316422H0.523682V171.376V329.709C11.0135 336.824 23.5035 342.71 36.3445 342.99Z" fill="white"/>
</svg>
